<svg width="24" height="20" viewBox="0 0 24 20" fill="none" xmlns="http://www.w3.org/2000/svg">
<path  d="M9.29289 19.7071C9.68342 20.0976 10.3166 20.0976 10.7071 19.7071C11.0976 19.3166 11.0976 18.6834 10.7071 18.2929L3.41421 11L23 11C23.5523 11 24 10.5523 24 10C24 9.44771 23.5523 9 23 9L3.41421 9L10.7071 1.70711C11.0976 1.31658 11.0976 0.683418 10.7071 0.292892C10.3166 -0.0976315 9.68342 -0.0976315 9.29289 0.292892L0.292892 9.29289C0.109835 9.47595 0.0125847 9.71232 0.00114441 9.95203C0.00038147 9.96801 0 9.984 0 10M4.19617e-05 10.0092C0.0023613 10.2621 0.0999775 10.5142 0.292892 10.7071L9.29289 19.7071" fill="currentColor"/>
</svg>


