<svg width="50" height="50" viewBox="0 0 50 50" fill="none" xmlns="http://www.w3.org/2000/svg">
<g clip-path="url(#clip0_26_824)">
<path d="M24.8352 26.7914C24.6879 26.6491 24.4905 26.5704 24.2857 26.5722C24.0809 26.574 23.8849 26.6561 23.7401 26.801C23.5952 26.9458 23.513 27.1418 23.5113 27.3466C23.5095 27.5514 23.5882 27.7488 23.7305 27.8961L24.5118 28.6774C24.6591 28.8197 24.8565 28.8984 25.0613 28.8967C25.2662 28.8949 25.4621 28.8127 25.607 28.6679C25.7518 28.523 25.834 28.3271 25.8358 28.1222C25.8375 27.9174 25.7588 27.72 25.6165 27.5727L24.8352 26.7914Z" fill="#F17454"/>
<path d="M28.7415 30.6977L27.9602 29.9164C27.8129 29.7741 27.6155 29.6954 27.4107 29.6972C27.2059 29.699 27.0099 29.7811 26.8651 29.926C26.7202 30.0708 26.638 30.2668 26.6363 30.4716C26.6345 30.6764 26.7132 30.8738 26.8555 31.0211L27.6368 31.8024C27.7841 31.9447 27.9815 32.0234 28.1863 32.0217C28.3912 32.0199 28.5871 31.9377 28.732 31.7929C28.8768 31.648 28.959 31.4521 28.9608 31.2472C28.9625 31.0424 28.8838 30.845 28.7415 30.6977Z" fill="#F17454"/>
<path d="M49.2188 45.3125H43.8141V43.75C43.814 43.5428 43.7317 43.3441 43.5852 43.1977L37.8906 37.5L38.5102 36.8805C38.6566 36.734 38.7389 36.5353 38.7389 36.3281C38.7389 36.121 38.6566 35.9223 38.5102 35.7758L25.7773 23.0469L27.1789 21.6406C27.3254 21.4941 27.4076 21.2954 27.4076 21.0883C27.4076 20.8811 27.3254 20.6824 27.1789 20.5359L10.8836 4.2375C10.5192 3.87124 10.0853 3.58136 9.60751 3.38483C9.12968 3.18831 8.61744 3.08908 8.10078 3.09297H8.05234C6.3267 3.10607 4.65141 3.67601 3.27578 4.71797C3.22668 4.70273 3.17616 4.69253 3.125 4.6875C2.48828 4.6875 1.5625 3.16563 1.5625 0.78125C1.5625 0.57405 1.48019 0.375336 1.33368 0.228823C1.18716 0.08231 0.98845 0 0.78125 0C0.57405 0 0.375336 0.08231 0.228823 0.228823C0.08231 0.375336 0 0.57405 0 0.78125C0 3.19766 0.809375 5.14766 2.00156 5.90547C0.732984 7.36506 0.0336523 9.23336 0.0320312 11.1672C0.0306246 11.6805 0.13106 12.1889 0.327522 12.6631C0.523984 13.1373 0.812568 13.5678 1.17656 13.9297L12.0078 24.7656L12.0117 24.7719H12.018L14.3531 27.1094L17.4781 30.2344C17.6246 30.3808 17.8233 30.4631 18.0305 30.4631C18.2376 30.4631 18.4363 30.3808 18.5828 30.2344L19.9836 28.8336L32.7148 41.568C32.8614 41.7144 33.06 41.7967 33.2672 41.7967C33.4743 41.7967 33.673 41.7144 33.8195 41.568L34.4391 40.9484L38.8031 45.3125H0.78125C0.57405 45.3125 0.375336 45.3948 0.228823 45.5413C0.08231 45.6878 0 45.8866 0 46.0938L0 49.2188C0 49.4259 0.08231 49.6247 0.228823 49.7712C0.375336 49.9177 0.57405 50 0.78125 50H49.2188C49.4259 50 49.6247 49.9177 49.7712 49.7712C49.9177 49.6247 50 49.4259 50 49.2188V46.0938C50 45.8866 49.9177 45.6878 49.7712 45.5413C49.6247 45.3948 49.4259 45.3125 49.2188 45.3125ZM13.6719 24.2188L21.1625 16.7281L22.3984 17.9688L14.9086 25.4586L13.6719 24.2188ZM1.59453 11.1672C1.59878 9.4489 2.28031 7.80158 3.4913 6.58255C4.70229 5.36352 6.34506 4.67109 8.06328 4.65547L8.05781 3.87422L8.10547 4.65547H8.12031C8.74208 4.65681 9.33817 4.90361 9.77891 5.34219L20.0555 15.625L12.5648 23.1156L2.28125 12.825C2.06274 12.6079 1.88952 12.3495 1.77163 12.065C1.65375 11.7804 1.59355 11.4752 1.59453 11.1672ZM18.0328 28.5828L16.0156 26.5625L23.5055 19.0719L25.5219 21.0938L18.0328 28.5828ZM24.6734 24.1508L34.8969 34.375L31.3141 37.9578L21.0938 27.7344L24.6734 24.1508ZM32.4219 39.0625L36.0047 35.4797L36.85 36.3281L33.2672 39.9109L32.4219 39.0625ZM35.5469 39.8438L36.7859 38.6047L42.2547 44.0734V45.3125H41.0156L35.5469 39.8438ZM48.4375 48.4375H1.5625V46.875H48.4375V48.4375Z" fill="#F17454"/>
<path d="M44.2827 32.2656C44.6117 32.0947 44.8874 31.8367 45.0798 31.5199C45.2722 31.203 45.374 30.8395 45.374 30.4688C45.374 30.098 45.2722 29.7345 45.0798 29.4176C44.8874 29.1008 44.6117 28.8428 44.2827 28.6719C43.8882 28.3758 43.814 28.2891 43.814 28.125C43.814 27.9178 43.7317 27.7191 43.5852 27.5726C43.4386 27.4261 43.2399 27.3438 43.0327 27.3438C42.8255 27.3438 42.6268 27.4261 42.4803 27.5726C42.3338 27.7191 42.2515 27.9178 42.2515 28.125C42.2681 28.4923 42.377 28.8495 42.5682 29.1635C42.7594 29.4776 43.0266 29.7384 43.3452 29.9219C43.7405 30.218 43.814 30.3047 43.814 30.4688C43.814 30.6328 43.7398 30.7203 43.3452 31.0156C43.0156 31.186 42.7392 31.4437 42.5462 31.7606C42.3533 32.0776 42.2512 32.4415 42.2512 32.8125C42.2512 33.1835 42.3533 33.5474 42.5462 33.8644C42.7392 34.1813 43.0156 34.439 43.3452 34.6094C43.7398 34.9055 43.814 34.9914 43.814 35.1562C43.814 35.3211 43.7398 35.4063 43.3452 35.7031C43.0266 35.8866 42.7594 36.1474 42.5682 36.4615C42.377 36.7755 42.2681 37.1327 42.2515 37.5C42.2515 37.7072 42.3338 37.9059 42.4803 38.0524C42.6268 38.1989 42.8255 38.2812 43.0327 38.2812C43.2399 38.2812 43.4386 38.1989 43.5852 38.0524C43.7317 37.9059 43.814 37.7072 43.814 37.5C43.814 37.3367 43.8882 37.25 44.2827 36.9531C44.6126 36.783 44.8892 36.5253 45.0824 36.2083C45.2755 35.8914 45.3777 35.5274 45.3777 35.1562C45.3777 34.7851 45.2755 34.4211 45.0824 34.1042C44.8892 33.7872 44.6126 33.5295 44.2827 33.3594C43.8882 33.0633 43.814 32.9773 43.814 32.8125C43.814 32.6477 43.8882 32.5648 44.2827 32.2656Z" fill="#F17454"/>
<path d="M48.9702 36.9531C49.2992 36.7822 49.5749 36.5242 49.7673 36.2074C49.9597 35.8905 50.0615 35.527 50.0615 35.1562C50.0615 34.7855 49.9597 34.422 49.7673 34.1051C49.5749 33.7883 49.2992 33.5303 48.9702 33.3594C48.5757 33.0633 48.5015 32.9766 48.5015 32.8125C48.5015 32.6053 48.4192 32.4066 48.2727 32.2601C48.1261 32.1136 47.9274 32.0312 47.7202 32.0312C47.513 32.0312 47.3143 32.1136 47.1678 32.2601C47.0213 32.4066 46.939 32.6053 46.939 32.8125C46.9556 33.1798 47.0645 33.537 47.2557 33.851C47.4469 34.1651 47.7141 34.4259 48.0327 34.6094C48.428 34.9055 48.5015 34.9922 48.5015 35.1562C48.5015 35.3203 48.4273 35.4078 48.0327 35.7031C47.7031 35.8735 47.4267 36.1312 47.2337 36.4481C47.0408 36.7651 46.9387 37.129 46.9387 37.5C46.9387 37.871 47.0408 38.2349 47.2337 38.5519C47.4267 38.8688 47.7031 39.1265 48.0327 39.2969C48.4273 39.593 48.5015 39.6789 48.5015 39.8438C48.5015 40.0086 48.4273 40.0938 48.0327 40.3906C47.7141 40.5741 47.4469 40.8349 47.2557 41.149C47.0645 41.463 46.9556 41.8202 46.939 42.1875C46.939 42.3947 47.0213 42.5934 47.1678 42.7399C47.3143 42.8864 47.513 42.9688 47.7202 42.9688C47.9274 42.9688 48.1261 42.8864 48.2727 42.7399C48.4192 42.5934 48.5015 42.3947 48.5015 42.1875C48.5015 42.0242 48.5757 41.9375 48.9702 41.6406C49.3001 41.4705 49.5767 41.2128 49.7699 40.8958C49.963 40.5789 50.0652 40.2149 50.0652 39.8438C50.0652 39.4726 49.963 39.1086 49.7699 38.7917C49.5767 38.4747 49.3001 38.217 48.9702 38.0469C48.5757 37.7508 48.5015 37.6648 48.5015 37.5C48.5015 37.3352 48.5757 37.2523 48.9702 36.9531Z" fill="#F17454"/>
</g>
<defs>
<clipPath id="clip0_26_824">
<rect width="50" height="50" fill="white"/>
</clipPath>
</defs>
</svg>
