<svg width="40" height="40" viewBox="0 0 40 40" fill="none" xmlns="http://www.w3.org/2000/svg">
<path d="M39.375 36.25H35.0513V35C35.0512 34.8343 34.9853 34.6753 34.8681 34.5581L30.3125 30L30.8081 29.5044C30.9253 29.3872 30.9911 29.2282 30.9911 29.0625C30.9911 28.8968 30.9253 28.7378 30.8081 28.6206L20.6219 18.4375L21.7431 17.3125C21.8603 17.1953 21.9261 17.0364 21.9261 16.8706C21.9261 16.7049 21.8603 16.546 21.7431 16.4287L8.70687 3.39C8.41534 3.09699 8.06828 2.86509 7.68601 2.70787C7.30374 2.55064 6.89395 2.47126 6.48063 2.47438H6.44187C5.06136 2.48486 3.72113 2.94081 2.62063 3.77437C2.58135 3.76219 2.54093 3.75402 2.5 3.75C1.99063 3.75 1.25 2.5325 1.25 0.625C1.25 0.45924 1.18415 0.300269 1.06694 0.183058C0.949732 0.065848 0.79076 0 0.625 0C0.45924 0 0.300269 0.065848 0.183058 0.183058C0.065848 0.300269 0 0.45924 0 0.625C0 2.55813 0.6475 4.11812 1.60125 4.72437C0.586387 5.89204 0.0269218 7.38669 0.025625 8.93375C0.0244997 9.34437 0.104848 9.75113 0.262018 10.1305C0.419187 10.5098 0.650054 10.8542 0.94125 11.1438L9.60625 19.8125L9.60938 19.8175H9.61438L11.4825 21.6875L13.9825 24.1875C14.0997 24.3047 14.2586 24.3705 14.4244 24.3705C14.5901 24.3705 14.749 24.3047 14.8662 24.1875L15.9869 23.0669L26.1719 33.2544C26.2891 33.3715 26.448 33.4374 26.6138 33.4374C26.7795 33.4374 26.9384 33.3715 27.0556 33.2544L27.5513 32.7588L31.0425 36.25H0.625C0.45924 36.25 0.300269 36.3158 0.183058 36.4331C0.065848 36.5503 0 36.7092 0 36.875L0 39.375C0 39.5408 0.065848 39.6997 0.183058 39.8169C0.300269 39.9342 0.45924 40 0.625 40H39.375C39.5408 40 39.6997 39.9342 39.8169 39.8169C39.9342 39.6997 40 39.5408 40 39.375V36.875C40 36.7092 39.9342 36.5503 39.8169 36.4331C39.6997 36.3158 39.5408 36.25 39.375 36.25ZM10.9375 19.375L16.93 13.3825L17.9188 14.375L11.9269 20.3669L10.9375 19.375ZM1.27562 8.93375C1.27902 7.55912 1.82425 6.24126 2.79304 5.26604C3.76183 4.29081 5.07605 3.73687 6.45062 3.72438L6.44625 3.09938L6.48438 3.72438H6.49625C6.99366 3.72545 7.47054 3.92289 7.82312 4.27375L16.0444 12.5L10.0519 18.4925L1.825 10.26C1.65019 10.0863 1.51161 9.87964 1.41731 9.65197C1.323 9.4243 1.27484 9.18017 1.27562 8.93375ZM14.4263 22.8662L12.8125 21.25L18.8044 15.2575L20.4175 16.875L14.4263 22.8662ZM19.7388 19.3206L27.9175 27.5L25.0513 30.3662L16.875 22.1875L19.7388 19.3206ZM25.9375 31.25L28.8037 28.3838L29.48 29.0625L26.6138 31.9287L25.9375 31.25ZM28.4375 31.875L29.4287 30.8838L33.8037 35.2588V36.25H32.8125L28.4375 31.875ZM38.75 38.75H1.25V37.5H38.75V38.75Z" fill="#F17454"/>
</svg>
