<svg width="318" height="104" viewBox="0 0 318 104" fill="none" xmlns="http://www.w3.org/2000/svg">
<g clip-path="url(#clip0_26_715)">
<mask id="mask0_26_715" style="mask-type:luminance" maskUnits="userSpaceOnUse" x="21" y="11" width="280" height="78">
<path d="M21.2542 11.5625H300.379V88.3625H21.2542V11.5625Z" fill="white"/>
</mask>
<g mask="url(#mask0_26_715)">
<path d="M21.2542 11.5625H300.379V88.4375H21.2542V11.5625Z" stroke="black" stroke-width="6"/>
</g>
<mask id="mask1_26_715" style="mask-type:luminance" maskUnits="userSpaceOnUse" x="28" y="18" width="133" height="64">
<path d="M28.7959 18.7876H160.821V81.2126H28.7959V18.7876Z" fill="white"/>
</mask>
<g mask="url(#mask1_26_715)">
<path d="M28.7959 18.7876H160.721V81.2126H28.7959V18.7876Z" fill="#02815E"/>
</g>
<path d="M38.8081 56.9067H43.5706V52.8317H45.7581C49.9539 52.8317 52.6164 50.4025 52.6164 46.6109C52.6164 42.8192 49.9539 40.415 45.7581 40.415H38.8081V56.9067ZM43.5206 48.8484V44.4192H45.3123C46.8914 44.4192 47.8081 45.2692 47.8081 46.6359C47.8081 48.0234 46.8914 48.8484 45.3123 48.8484H43.5206Z" fill="white"/>
<path d="M56.6836 56.9067H68.2544V53.0192H61.3961V50.4734H67.3586V46.6567H61.3961V44.2567H67.9961V40.415H56.6836V56.9067Z" fill="white"/>
<path d="M72.8398 56.9067H77.5523V48.5442L80.7357 52.9942H83.819L86.9773 48.565V56.9067H91.6898V40.415H87.8273L82.2648 48.2609L76.7273 40.415H72.8398V56.9067Z" fill="white"/>
<path d="M104.994 57.2608C110.248 57.2608 113.969 53.7025 113.969 48.6608C113.969 43.6191 110.248 40.0608 104.994 40.0608C99.7394 40.0608 96.0144 43.6191 96.0144 48.6608C96.0144 53.7025 99.7394 57.2608 104.994 57.2608ZM100.844 48.6608C100.844 46.1858 102.564 44.465 104.994 44.465C107.444 44.465 109.139 46.1858 109.139 48.6608C109.139 51.1358 107.444 52.8525 104.994 52.8525C102.564 52.8525 100.844 51.1358 100.844 48.6608Z" fill="white"/>
<path d="M128.167 56.9067H132.925V40.415H128.167V46.3275H123.079V40.415H118.317V56.9067H123.079V50.7109H128.167V56.9067Z" fill="white"/>
<path d="M142.131 56.9067H146.865V44.8192H151.886V40.415H137.111V44.8192H142.131V56.9067Z" fill="white"/>
<path d="M186.853 59.6H192.657V44.7792H198.811V39.3792H180.699V44.7792H186.853V59.6Z" fill="black"/>
<path d="M201.758 59.6H215.941V54.8333H207.537V51.7125H214.846V47.0333H207.537V44.0875H215.625V39.3792H201.758V59.6Z" fill="black"/>
<path d="M231.454 59.6H237.292V39.3792H231.454V46.6292H225.217V39.3792H219.379V59.6H225.217V52.0042H231.454V59.6Z" fill="black"/>
<path d="M246.39 59.6H252.194V44.7792H258.348V39.3792H240.236V44.7792H246.39V59.6Z" fill="black"/>
<path d="M259.304 59.6H265.483L266.583 56.7417H273.487L274.583 59.6H280.795L272.937 39.3792H267.158L259.304 59.6ZM267.795 52.4667L270.05 46.1958L272.304 52.4667H267.795Z" fill="black"/>
</g>
<defs>
<clipPath id="clip0_26_715">
<rect width="318" height="104" fill="white"/>
</clipPath>
</defs>
</svg>
