<svg width="48" height="48" viewBox="0 0 48 48" fill="none" xmlns="http://www.w3.org/2000/svg">
<path d="M12.5059 30.9922C12.5059 28.8242 14.2637 27.0566 16.4414 27.0566C18.6191 27.0566 20.377 28.8145 20.377 30.9922C20.377 33.1699 18.6191 34.9277 16.4414 34.9277C14.2637 34.9277 12.5059 33.1602 12.5059 30.9922ZM14.5762 29.127C12.916 30.7871 14.0977 33.6289 16.4414 33.6289C18.7852 33.6289 19.9668 30.7871 18.3066 29.127C17.2715 28.0918 15.6016 28.0918 14.5762 29.127ZM8.24805 29.0195H8.99023C9.16602 28.3457 9.43945 27.7109 9.78125 27.1152L9.25391 26.5977C9.00977 26.3535 9 25.9727 9.22461 25.7188C9.49805 25.3477 9.79102 24.9961 10.123 24.6738C10.4551 24.3418 10.8164 24.0293 11.2168 23.7461C11.4805 23.5605 11.832 23.5898 12.0469 23.8145L12.5742 24.3418C12.6719 24.2832 12.7695 24.2246 12.877 24.1758C8.67773 19.4102 8.88281 12.1836 13.4043 7.66211C18.1113 2.94531 25.7578 2.94531 30.4746 7.66211C32.6621 9.84961 34.0098 12.8672 34.0098 16.1973C34.0098 22.1836 29.6055 27.3105 23.6191 28.1504C23.7363 28.4336 23.834 28.7363 23.9121 29.0391H24.6445C24.9863 29.0391 25.2598 29.3027 25.2891 29.6348C25.3574 30.0938 25.3965 30.5527 25.3965 31.0117C25.3965 31.5 25.3574 31.9688 25.2793 32.4375C25.2305 32.7598 24.957 32.9844 24.6445 32.9844H23.9023C23.7266 33.6582 23.4629 34.293 23.1113 34.8887L23.6289 35.4062C23.873 35.6504 23.8828 36.0312 23.6582 36.2852C23.3848 36.6562 23.0918 37.0078 22.7695 37.3301C22.4375 37.6621 22.0664 37.9746 21.6758 38.2578C21.4219 38.4434 21.0605 38.4141 20.8457 38.1895L20.3281 37.6719C19.7324 38.0137 19.0879 38.2871 18.4238 38.4629V39.1953C18.4238 39.5371 18.1602 39.8105 17.8379 39.8398C17.3789 39.9082 16.9199 39.9473 16.4609 39.9473C15.9727 39.9473 15.4941 39.9082 15.0352 39.8301C14.7227 39.7812 14.498 39.5078 14.498 39.1953V38.4531C13.8242 38.2773 13.1895 38.0137 12.5937 37.6621L12.0664 38.1797C11.8223 38.4238 11.4414 38.4336 11.1875 38.209C10.8164 37.9355 10.4648 37.6426 10.1426 37.3203C9.81055 36.9883 9.49805 36.6172 9.21484 36.2266C9.0293 35.9629 9.05859 35.6113 9.2832 35.3965L9.81055 34.8789C9.46875 34.2832 9.19531 33.6387 9.01953 32.9648H8.28711C7.96484 32.9648 7.70117 32.7305 7.65234 32.4277C7.49609 31.4805 7.49609 30.5039 7.65234 29.5664C7.66211 29.2441 7.93555 29.0195 8.24805 29.0195ZM14.1367 23.6289C14.2441 23.5996 14.3613 23.5605 14.4687 23.5312V22.7988C14.4687 22.457 14.7324 22.1836 15.0645 22.1543C15.5234 22.0859 15.9824 22.0469 16.4414 22.0469C16.9297 22.0469 17.4082 22.0859 17.8672 22.1641C18.1797 22.2129 18.4141 22.4863 18.4141 22.7988V23.541C19.0879 23.7168 19.7227 23.9902 20.3184 24.332L20.8359 23.8047C21.0801 23.5605 21.4609 23.5508 21.7148 23.7754C22.0859 24.0488 22.4375 24.3418 22.7598 24.6641C23.0918 24.9961 23.4043 25.3672 23.6875 25.7578C23.873 26.0215 23.8438 26.373 23.6191 26.5879L23.3457 26.8613C24.8203 26.666 26.207 26.168 27.4375 25.4355L25.7578 23.7559C23.1211 21.1191 21.2461 22.3203 18.5996 20.7969C16.8711 19.8008 15.5625 17.6035 15.543 15.5625C15.543 15.0742 16.0703 14.7422 16.5293 15.0059L20.3672 17.2227L22.4961 15.9922V13.5508L18.6387 11.3242C18.1992 11.0703 18.209 10.4453 18.6387 10.2012C20.582 9.09766 22.6914 9.05859 24.7031 10.2305C28.7168 12.5547 26.8809 16.7051 29.6445 19.4688L31.4219 21.2559C33.6582 17.0664 32.8672 11.9102 29.5273 8.57031C25.3184 4.36133 18.4922 4.36133 14.293 8.57031C10.1523 12.7109 10.0938 19.4102 14.1367 23.6289ZM9.49805 30.3086H8.81445C8.77539 30.7578 8.77539 31.207 8.81445 31.666H9.45898C9.78125 31.6465 10.0645 31.8711 10.1328 32.1934C10.2793 32.9746 10.6504 33.9219 11.1094 34.5566C11.3047 34.8105 11.2852 35.1719 11.0508 35.416L10.5625 35.8945C10.8555 36.2461 11.1777 36.5684 11.5195 36.8516L12.0078 36.3633C12.2227 36.1484 12.5645 36.1094 12.8281 36.2852C13.1895 36.5293 13.5801 36.7344 13.9805 36.9004C14.3613 37.0566 14.7715 37.1836 15.1914 37.2617C15.5137 37.3008 15.7578 37.5742 15.7578 37.9062V38.5898C16.207 38.6289 16.6562 38.6289 17.1152 38.5898V37.9062C17.1152 37.6035 17.3301 37.3301 17.6426 37.2715C18.4238 37.125 19.3711 36.7539 20.0059 36.3047C20.2598 36.1094 20.6211 36.1289 20.8652 36.3535L21.3535 36.8418C21.6953 36.5488 22.0176 36.2266 22.3105 35.8848L21.8223 35.3965C21.6074 35.1816 21.5684 34.8398 21.7441 34.5762C21.9883 34.2148 22.1934 33.834 22.3594 33.4238C22.5156 33.043 22.6426 32.6328 22.7207 32.2129C22.7598 31.8906 23.0332 31.6465 23.3652 31.6465H24.0488C24.0879 31.1973 24.0879 30.748 24.0488 30.2891H23.3652C23.0625 30.2891 22.7891 30.0742 22.7305 29.7617C22.5938 29.0195 22.2227 28.0332 21.7637 27.3984C21.5684 27.1445 21.5879 26.7832 21.8125 26.5488L22.3008 26.0605C22.0078 25.7188 21.6855 25.3867 21.3438 25.1035L20.8652 25.5918C20.6504 25.8066 20.3086 25.8457 20.0449 25.6699C19.6836 25.4258 19.3027 25.2207 18.8926 25.0547C18.5117 24.8984 18.1016 24.7715 17.6816 24.6934C17.3594 24.6543 17.1152 24.3809 17.1152 24.0488V23.3652C16.666 23.3262 16.2168 23.3262 15.7578 23.3652V24.0488C15.7578 24.3516 15.543 24.625 15.2305 24.6836C14.4492 24.8301 13.4922 25.2012 12.8574 25.6602C12.6035 25.8555 12.2422 25.8359 12.0078 25.6016L11.5195 25.1133C11.1777 25.4062 10.8457 25.7285 10.5625 26.0703L11.041 26.5586C11.2559 26.7734 11.2949 27.1152 11.1191 27.3789C10.875 27.7402 10.6602 28.1309 10.4941 28.5312C10.3379 28.9121 10.2109 29.3223 10.1328 29.7422C10.1035 30.0645 9.83008 30.3086 9.49805 30.3086ZM29.7129 23.6289C30.084 23.2383 30.4258 22.8281 30.7383 22.3789L28.7363 20.3867C25.6211 17.2715 27.418 13.2871 24.0586 11.3438C22.8477 10.6504 21.627 10.4746 20.3867 10.8457L23.4434 12.6133C23.6484 12.7207 23.7852 12.9355 23.7852 13.1797V16.334C23.7949 16.5684 23.6875 16.8027 23.4629 16.9297L20.6992 18.5312C20.5039 18.6484 20.2598 18.6484 20.0547 18.5312L17.0371 16.793C17.3984 17.9648 18.2383 19.1074 19.2441 19.6934C21.5684 21.0312 23.6875 19.8789 26.666 22.8574L28.5215 24.7129C28.9512 24.3711 29.3418 24.0195 29.7129 23.6289ZM2.35938 6.1582H2.82813V0.914063C2.82813 0.552734 3.11133 0.269531 3.47266 0.269531H36.6758C37.0371 0.269531 37.3203 0.5625 37.3203 0.914063V26.4512H42.0273C42.3887 26.4512 42.6719 26.7441 42.6719 27.0957V31.0801C45.377 32.4863 46.1484 36.002 44.3027 38.4141L47.1641 41.2754C47.418 41.5293 47.418 41.9395 47.1641 42.1934C46.9102 42.4473 46.5 42.4473 46.2461 42.1934L43.3848 39.332C43.1602 39.5078 42.916 39.6641 42.6719 39.791V43.7461C42.6719 44.1074 42.3789 44.3906 42.0273 44.3906H37.3203V47.0957C37.3203 47.457 37.0273 47.7402 36.6758 47.7402H3.47266C3.11133 47.7402 2.82813 47.457 2.82813 47.0957V41.8516H2.35938C1.39258 41.8516 0.640625 41.0312 0.640625 40.0645V38.7266C0.640625 37.7598 1.40234 36.9395 2.35938 36.9395H2.82813V31.5977H2.35938C1.39258 31.5977 0.640625 30.7773 0.640625 29.8105V28.4727C0.640625 27.5059 1.40234 26.6855 2.35938 26.6855H2.82813V21.3535H2.35938C1.39258 21.3535 0.640625 20.5234 0.640625 19.5664V18.2285C0.640625 17.2617 1.40234 16.4414 2.35938 16.4414H2.82813V11.0996H2.35938C1.39258 11.0996 0.640625 10.2793 0.640625 9.3125V7.95508C0.640625 6.98828 1.40234 6.1582 2.35938 6.1582ZM4.12695 6.1582H4.78125C5.74805 6.1582 6.5 6.98828 6.5 7.94531V9.2832C6.5 10.25 5.74805 11.0703 4.78125 11.0703H4.12695V16.4121H4.78125C5.74805 16.4121 6.5 17.2324 6.5 18.1992V19.5371C6.5 20.5039 5.74805 21.3242 4.78125 21.3242H4.12695V26.6563H4.78125C5.74805 26.6563 6.5 27.4863 6.5 28.4434V29.7813C6.5 30.748 5.74805 31.5684 4.78125 31.5684H4.12695V36.9102H4.78125C5.74805 36.9102 6.5 37.7305 6.5 38.6973V40.0352C6.5 41.002 5.74805 41.8223 4.78125 41.8223H4.12695V46.4219H36.041V44.3711H30.2207C29.8594 44.3711 29.5762 44.0781 29.5762 43.7266V27.0957C29.5762 26.7344 29.8594 26.4512 30.2207 26.4512H36.041V1.55859H4.12695V6.1582ZM4.77148 7.45703H2.35938C2.10547 7.45703 1.92969 7.70117 1.92969 7.95508V9.29297C1.92969 9.54688 2.10547 9.79102 2.35938 9.79102H4.77148C5.01562 9.79102 5.20117 9.55664 5.20117 9.29297V7.95508C5.20117 7.70117 5.02539 7.45703 4.77148 7.45703ZM4.77148 38.209H2.35938C2.10547 38.209 1.92969 38.4434 1.92969 38.707V40.0449C1.92969 40.3086 2.10547 40.543 2.35938 40.543H4.77148C5.01562 40.543 5.20117 40.3086 5.20117 40.0449V38.707C5.20117 38.4531 5.02539 38.209 4.77148 38.209ZM4.77148 27.9551H2.35938C2.10547 27.9551 1.92969 28.1992 1.92969 28.4531V29.791C1.92969 30.0449 2.10547 30.2891 2.35938 30.2891H4.77148C5.01562 30.2891 5.20117 30.0547 5.20117 29.791V28.4531C5.20117 28.1992 5.02539 27.9551 4.77148 27.9551ZM4.77148 17.7109H2.35938C2.10547 17.7109 1.92969 17.9453 1.92969 18.209V19.5469C1.92969 19.8105 2.10547 20.0449 2.35938 20.0449H4.77148C5.01562 20.0449 5.20117 19.8105 5.20117 19.5469V18.209C5.20117 17.9453 5.02539 17.7109 4.77148 17.7109ZM36.9492 31.959C38.1406 30.7676 39.8105 30.2988 41.3828 30.6211V27.7402H30.8652V43.0918H41.3926V40.2402C38.3652 40.8457 35.5137 38.5312 35.5137 35.4355C35.5137 34.1758 35.9922 32.916 36.9492 31.959ZM40.416 31.8223C38.4238 31.8223 36.8027 33.4434 36.8027 35.4355C36.8027 37.4277 38.4238 39.0488 40.416 39.0488C42.3691 39.0488 44.0293 37.3691 44.0293 35.4355C44.0293 33.4922 42.3691 31.8223 40.416 31.8223Z" fill="#F26B48"/>
</svg>
