<svg width="52" height="52" viewBox="0 0 52 52" fill="none" xmlns="http://www.w3.org/2000/svg">
<path d="M7.39937 13.9963H31.1407C31.1552 13.9963 31.1693 13.9971 31.1837 13.9974C31.195 13.9268 31.2029 13.8553 31.2029 13.7815V11.646C31.2029 10.8543 30.5492 10.2127 29.7428 10.2127H28.9715C28.3809 10.2127 27.8489 9.8633 27.6235 9.32748C27.6211 9.32165 27.6186 9.31581 27.6162 9.30998C27.3896 8.77456 27.5141 8.15826 27.9317 7.7483L28.477 7.21299C29.0473 6.65323 29.0473 5.74568 28.477 5.18592L26.9387 3.67586C26.3685 3.1161 25.444 3.1161 24.8738 3.67586L24.3284 4.21117C23.9109 4.62113 23.283 4.74337 22.7377 4.52103C22.7317 4.51862 22.7258 4.5162 22.7198 4.51379C22.1739 4.29256 21.8179 3.77023 21.8179 3.19045V2.4333C21.8179 1.64165 21.1642 1 20.3578 1H18.1824C17.3759 1 16.7223 1.64175 16.7223 2.4333V3.19045C16.7223 3.77023 16.3663 4.29246 15.8204 4.51379C15.8144 4.5162 15.8084 4.51862 15.8025 4.52103C15.2571 4.74347 14.6292 4.62113 14.2117 4.21127L13.6664 3.67586C13.0961 3.1161 12.1716 3.1161 11.6014 3.67586L10.0631 5.18592C9.49284 5.74568 9.49284 6.65323 10.0631 7.21299L10.6085 7.7484C11.0261 8.15836 11.1506 8.77466 10.924 9.30998C10.9216 9.31581 10.9191 9.32165 10.9167 9.32748C10.6913 9.8634 10.1592 10.2128 9.56857 10.2128H8.79727C7.99081 10.2128 7.33716 10.8545 7.33716 11.6461V13.7816C7.33716 13.8554 7.34515 13.9269 7.35643 13.9975C7.37077 13.9971 7.38502 13.9963 7.39937 13.9963Z" stroke="#F17556" stroke-width="1.5" stroke-miterlimit="10" stroke-linecap="round" stroke-linejoin="round"/>
<path d="M23.3574 13.9964C23.4892 13.5919 23.562 13.1614 23.562 12.7138C23.562 10.3869 21.6404 8.50061 19.27 8.50061C16.8996 8.50061 14.978 10.3869 14.978 12.7138C14.978 13.1613 15.0508 13.5918 15.1826 13.9964H23.3574Z" stroke="#F17556" stroke-width="1.5" stroke-miterlimit="10" stroke-linecap="round" stroke-linejoin="round"/>
<path d="M7.39929 31.8002C5.98428 31.8002 4.83716 32.9262 4.83716 34.3153V38.187C4.83716 39.576 5.98428 40.7021 7.39929 40.7021H31.1407" stroke="#F17556" stroke-width="1.5" stroke-miterlimit="10" stroke-linejoin="round"/>
<path d="M47.1337 39.46L45.1998 31.5938H33.2198L30.9805 40.702H46.1374C46.8007 40.702 47.2893 40.093 47.1337 39.46Z" stroke="#F17556" stroke-width="1.5" stroke-miterlimit="10" stroke-linecap="round" stroke-linejoin="round"/>
<path d="M9.3396 27.3491H11.1916" stroke="#F17556" stroke-width="1.5" stroke-miterlimit="10" stroke-linecap="round" stroke-linejoin="round"/>
<path d="M9.3396 18.4473H11.1916" stroke="#F17556" stroke-width="1.5" stroke-miterlimit="10" stroke-linecap="round" stroke-linejoin="round"/>
<path d="M9.3396 36.2511H11.1916" stroke="#F17556" stroke-width="1.5" stroke-miterlimit="10" stroke-linecap="round" stroke-linejoin="round"/>
<path d="M29.0344 18.4473H29.2007" stroke="#F17556" stroke-width="1.5" stroke-miterlimit="10" stroke-linecap="round" stroke-linejoin="round"/>
<path d="M29.0344 27.3491H29.2007" stroke="#F17556" stroke-width="1.5" stroke-miterlimit="10" stroke-linecap="round" stroke-linejoin="round"/>
<path d="M29.0344 36.2511H29.2007" stroke="#F17556" stroke-width="1.5" stroke-miterlimit="10" stroke-linecap="round" stroke-linejoin="round"/>
<path d="M25.7927 18.4473H25.959" stroke="#F17556" stroke-width="1.5" stroke-miterlimit="10" stroke-linecap="round" stroke-linejoin="round"/>
<path d="M25.7927 27.3491H25.959" stroke="#F17556" stroke-width="1.5" stroke-miterlimit="10" stroke-linecap="round" stroke-linejoin="round"/>
<path d="M25.7927 36.2511H25.959" stroke="#F17556" stroke-width="1.5" stroke-miterlimit="10" stroke-linecap="round" stroke-linejoin="round"/>
<path d="M22.551 18.4473H22.7173" stroke="#F17556" stroke-width="1.5" stroke-miterlimit="10" stroke-linecap="round" stroke-linejoin="round"/>
<path d="M22.551 27.3491H22.7173" stroke="#F17556" stroke-width="1.5" stroke-miterlimit="10" stroke-linecap="round" stroke-linejoin="round"/>
<path d="M22.551 36.2511H22.7173" stroke="#F17556" stroke-width="1.5" stroke-miterlimit="10" stroke-linecap="round" stroke-linejoin="round"/>
<path d="M41.5068 36.1362V40.702" stroke="#F17556" stroke-width="1.5" stroke-miterlimit="10" stroke-linecap="round" stroke-linejoin="round"/>
<path d="M36.9128 40.702V36.1362" stroke="#F17556" stroke-width="1.5" stroke-miterlimit="10" stroke-linecap="round" stroke-linejoin="round"/>
<path d="M45.1998 31.5938H33.2197V29.543C33.2197 28.154 34.3668 27.028 35.7819 27.028H42.6376C44.0526 27.028 45.1998 28.154 45.1998 29.543V31.5938Z" stroke="#F17556" stroke-width="1.5" stroke-miterlimit="10" stroke-linecap="round" stroke-linejoin="round"/>
<path d="M7.39929 13.9963H31.1407C32.5557 13.9963 33.7028 15.1224 33.7028 16.5114V20.3832C33.7028 21.7722 32.5557 22.8983 31.1407 22.8983H7.39929C5.98428 22.8983 4.83716 21.7722 4.83716 20.3832V16.5114C4.83716 15.1224 5.98428 13.9963 7.39929 13.9963Z" stroke="#F17556" stroke-width="1.5" stroke-miterlimit="10" stroke-linecap="round" stroke-linejoin="round"/>
<path d="M33.7028 28.0741V25.4133C33.7028 24.0243 32.5557 22.8982 31.1407 22.8982H7.39929C5.98428 22.8982 4.83716 24.0243 4.83716 25.4133V29.285C4.83716 30.6741 5.98428 31.8001 7.39929 31.8001H13.5993" stroke="#F17556" stroke-width="1.5" stroke-miterlimit="10" stroke-linecap="round" stroke-linejoin="round"/>
<path d="M17.1863 31.8002H31.1407C31.997 31.8002 32.7545 31.3876 33.2198 30.7542" stroke="#F17556" stroke-width="1.5" stroke-miterlimit="10" stroke-linecap="round" stroke-linejoin="round"/>
<path d="M31.263 44.5419H25.2104V51H31.263V44.5419Z" stroke="#F17556" stroke-width="1.5" stroke-miterlimit="10" stroke-linecap="round" stroke-linejoin="round"/>
<path d="M19.1578 44.5419H13.1052V51H19.1578V44.5419Z" stroke="#F17556" stroke-width="1.5" stroke-miterlimit="10" stroke-linecap="round" stroke-linejoin="round"/>
<path d="M7.05273 44.5419V51" stroke="#F17556" stroke-width="1.5" stroke-miterlimit="10" stroke-linejoin="round"/>
<path d="M37.6833 44.5419H4.28948C2.47272 44.5419 1 45.9875 1 47.771C1 49.5544 2.47272 51 4.28948 51H47.7105C49.5273 51 51 49.5544 51 47.771C51 45.9875 49.5273 44.5419 47.7105 44.5419H41.2703" stroke="#F17556" stroke-width="1.5" stroke-miterlimit="10" stroke-linecap="round" stroke-linejoin="round"/>
<path d="M41.2596 27.028V13.4593C41.2596 12.6258 40.5713 11.9502 39.7223 11.9502H38.6974C37.8484 11.9502 37.1602 12.6258 37.1602 13.4593V16.7444" stroke="#F17556" stroke-width="1.5" stroke-miterlimit="10" stroke-linecap="round" stroke-linejoin="round"/>
<path d="M37.1602 20.2655V27.028" stroke="#F17556" stroke-width="1.5" stroke-miterlimit="10" stroke-linecap="round" stroke-linejoin="round"/>
</svg>
