<svg width="25" height="24" viewBox="0 0 25 24" fill="none" xmlns="http://www.w3.org/2000/svg">
<path fill-rule="evenodd" clip-rule="evenodd" d="M10.6602 17C8.9369 16.9979 7.28483 16.3124 6.0663 15.0939C4.84777 13.8753 4.16227 12.2233 4.16016 10.5C4.16016 6.916 7.07616 4 10.6602 4C14.2442 4 17.1602 6.916 17.1602 10.5C17.1602 14.084 14.2442 17 10.6602 17ZM20.8892 19.315L17.3292 15.755C18.5152 14.2602 19.1605 12.4081 19.1602 10.5C19.1602 5.813 15.3472 2 10.6602 2C5.97316 2 2.16016 5.813 2.16016 10.5C2.16016 15.187 5.97316 19 10.6602 19C12.568 19.0002 14.4197 18.3549 15.9142 17.169L20.1112 21.364L20.7452 22H22.1602V20.586L20.8892 19.315Z" fill="white"/>
</svg>
